<?xml version="1.0" encoding="utf-8"?>
<!-- Generator: Adobe Illustrator 19.1.0, SVG Export Plug-In . SVG Version: 6.00 Build 0)  -->
<svg version="1.1" id="Layer_1" xmlns="http://www.w3.org/2000/svg" xmlns:xlink="http://www.w3.org/1999/xlink" x="0px" y="0px"
	 viewBox="0 0 140.8 140.8" style="enable-background:new 0 0 140.8 140.8;" xml:space="preserve">
<style type="text/css">
	.st0{fill:#A5D5C3;}
	.st1{fill:#D1DF66;}
	.st2{fill:#FFFFFF;}
	.st3{fill:none;stroke:#414042;stroke-width:9;stroke-linecap:round;stroke-linejoin:round;stroke-miterlimit:10;}
	.st4{fill:none;stroke:#FDFDFE;stroke-width:4.536;stroke-miterlimit:10;}
	.st5{fill:#FDFDFE;}
	.st6{fill:none;stroke:#FCFCFC;stroke-width:2.2536;stroke-linecap:round;stroke-miterlimit:10;}
	.st7{fill:none;stroke:#FFFFFF;stroke-width:2.2536;stroke-miterlimit:10;}
	.st8{fill:none;stroke:#FFFFFF;stroke-width:2.2536;stroke-linecap:round;stroke-miterlimit:10;}
	.st9{fill:#FCFCFC;}
	.st10{fill:none;stroke:#FFFFFF;stroke-width:2.232;stroke-miterlimit:10;}
	.st11{fill:none;stroke:#FFFFFF;stroke-width:2.232;stroke-linecap:round;stroke-linejoin:round;stroke-miterlimit:10;}
	.st12{fill:none;stroke:#A5D5C3;stroke-width:2.232;stroke-miterlimit:10;}
	.st13{fill:#E5E5E5;}
	.st14{fill:none;stroke:#454545;stroke-miterlimit:10;}
	.st15{fill:none;stroke:#FFFFFF;stroke-width:4.536;stroke-miterlimit:10;}
</style>
<g>
	<path class="st13" d="M96.1,121.6H46c-3.1,0-5.6-3.8-5.6-8.7V27.2c0-4.9,2.4-8.7,5.6-8.7h50.1c2.6,0,4.8,2.6,5.4,6.6l0,0.2V115
		l0,0.1C100.9,119,98.7,121.6,96.1,121.6z M46,20.7c-1.6,0-3.3,2.7-3.3,6.5v85.7c0,3.8,1.8,6.5,3.3,6.5h50.1c1.4,0,2.7-2,3.2-4.6
		V25.3c-0.4-2.6-1.8-4.6-3.2-4.6H46z"/>
</g>
<g>
	<rect x="69.3" y="20" class="st13" width="2.2" height="100.5"/>
</g>
<g>
	<path class="st13" d="M75.2,81.4c-0.6,0-1.1-0.5-1.1-1.1V62.4c0-0.6,0.5-1.1,1.1-1.1s1.1,0.5,1.1,1.1v17.9
		C76.3,80.9,75.8,81.4,75.2,81.4z"/>
</g>
<g>
	<path class="st13" d="M66.2,81.4c-0.6,0-1.1-0.5-1.1-1.1V62.4c0-0.6,0.5-1.1,1.1-1.1s1.1,0.5,1.1,1.1v17.9
		C67.3,80.9,66.8,81.4,66.2,81.4z"/>
</g>
</svg>
