<?xml version="1.0" encoding="utf-8"?>
<!-- Generator: Adobe Illustrator 19.1.0, SVG Export Plug-In . SVG Version: 6.00 Build 0)  -->
<svg version="1.1" id="Layer_1" xmlns="http://www.w3.org/2000/svg" xmlns:xlink="http://www.w3.org/1999/xlink" x="0px" y="0px"
	 viewBox="0 0 140.8 140.8" style="enable-background:new 0 0 140.8 140.8;" xml:space="preserve">
<style type="text/css">
	.st0{fill:#A5D5C3;}
	.st1{fill:#D1DF66;}
	.st2{fill:#FFFFFF;}
	.st3{fill:none;stroke:#414042;stroke-width:9;stroke-linecap:round;stroke-linejoin:round;stroke-miterlimit:10;}
	.st4{fill:none;stroke:#FDFDFE;stroke-width:4.536;stroke-miterlimit:10;}
	.st5{fill:#FDFDFE;}
	.st6{fill:none;stroke:#FCFCFC;stroke-width:2.2536;stroke-linecap:round;stroke-miterlimit:10;}
	.st7{fill:none;stroke:#FFFFFF;stroke-width:2.2536;stroke-miterlimit:10;}
	.st8{fill:none;stroke:#FFFFFF;stroke-width:2.2536;stroke-linecap:round;stroke-miterlimit:10;}
	.st9{fill:#FCFCFC;}
	.st10{fill:none;stroke:#FFFFFF;stroke-width:2.232;stroke-miterlimit:10;}
	.st11{fill:none;stroke:#FFFFFF;stroke-width:2.232;stroke-linecap:round;stroke-linejoin:round;stroke-miterlimit:10;}
	.st12{fill:none;stroke:#A5D5C3;stroke-width:2.232;stroke-miterlimit:10;}
	.st13{fill:#E5E5E5;}
	.st14{fill:none;stroke:#454545;stroke-miterlimit:10;}
	.st15{fill:none;stroke:#FFFFFF;stroke-width:4.536;stroke-miterlimit:10;}
</style>
<g>
	<path class="st13" d="M113.1,116.6l-83.4,0c-3.6-0.7-6.1-3.1-6.1-5.9V54.2c0-3.4,3.7-6.1,8.2-6.1h79.4c4.5,0,8.2,2.8,8.2,6.1v56.4
		c0,2.8-2.5,5.2-6.1,5.9L113.1,116.6z M30,114.3h82.9c2.5-0.5,4.2-2,4.2-3.7V54.2c0-2.1-2.7-3.9-5.9-3.9H31.7
		c-3.2,0-5.9,1.8-5.9,3.9v56.4C25.8,112.3,27.5,113.8,30,114.3z"/>
</g>
<g>
	<rect x="24.7" y="60.2" class="st13" width="93.1" height="2.2"/>
</g>
<g>
	<path class="st13" d="M79,68.6H61.2c-0.6,0-1.1-0.5-1.1-1.1s0.5-1.1,1.1-1.1H79c0.6,0,1.1,0.5,1.1,1.1S79.6,68.6,79,68.6z"/>
</g>
</svg>
