<?xml version="1.0" encoding="utf-8"?>
<!-- Generator: Adobe Illustrator 19.1.0, SVG Export Plug-In . SVG Version: 6.00 Build 0)  -->
<svg version="1.1" id="Layer_1" xmlns="http://www.w3.org/2000/svg" xmlns:xlink="http://www.w3.org/1999/xlink" x="0px" y="0px"
	 viewBox="0 0 140.8 140.8" style="enable-background:new 0 0 140.8 140.8;" xml:space="preserve">
<style type="text/css">
	.st0{fill:#A5D5C3;}
	.st1{fill:#D1DF66;}
	.st2{fill:#FFFFFF;}
	.st3{fill:none;stroke:#414042;stroke-width:9;stroke-linecap:round;stroke-linejoin:round;stroke-miterlimit:10;}
	.st4{fill:none;stroke:#FDFDFE;stroke-width:4.536;stroke-miterlimit:10;}
	.st5{fill:#FDFDFE;}
	.st6{fill:none;stroke:#FCFCFC;stroke-width:2.2536;stroke-linecap:round;stroke-miterlimit:10;}
	.st7{fill:none;stroke:#FFFFFF;stroke-width:2.2536;stroke-miterlimit:10;}
	.st8{fill:none;stroke:#FFFFFF;stroke-width:2.2536;stroke-linecap:round;stroke-miterlimit:10;}
	.st9{fill:#FCFCFC;}
	.st10{fill:none;stroke:#FFFFFF;stroke-width:2.232;stroke-miterlimit:10;}
	.st11{fill:none;stroke:#FFFFFF;stroke-width:2.232;stroke-linecap:round;stroke-linejoin:round;stroke-miterlimit:10;}
	.st12{fill:none;stroke:#A5D5C3;stroke-width:2.232;stroke-miterlimit:10;}
</style>
<g>
	<g>
		<path class="st0" d="M46,58.3c-0.4,0-0.7,0.3-0.7,0.7v26.3c0,0.4,0.3,0.7,0.7,0.7s0.7-0.3,0.7-0.7V59.1
			C46.8,58.7,46.4,58.3,46,58.3z"/>
		<path class="st0" d="M55,71c-2.6-0.9-5.8,1.5-5.9,1.6c-0.3,0.2-0.4,0.7-0.2,1c0.2,0.3,0.7,0.4,1,0.2c0.7-0.6,3-1.9,4.6-1.4
			c0.7,0.2,1.3,0.9,1.6,2v11c0,0.4,0.3,0.7,0.7,0.7c0.4,0,0.7-0.3,0.7-0.7V74.1l0-0.1C57.1,72.4,56.2,71.4,55,71z"/>
		<path class="st0" d="M78,71.3c-2.6-0.9-5.8,1.5-5.9,1.6c-0.3,0.2-0.4,0.7-0.2,1c0.2,0.3,0.7,0.4,1,0.2c0.7-0.6,3-1.9,4.6-1.4
			c0.7,0.2,1.3,0.9,1.6,2v11c0,0.4,0.3,0.7,0.7,0.7c0.4,0,0.7-0.3,0.7-0.7V74.5l0-0.1C80.1,72.8,79.2,71.7,78,71.3z"/>
		<path class="st0" d="M63.4,71.5c-0.4,0-0.7,0.3-0.7,0.7v13.1c0,0.4,0.3,0.7,0.7,0.7c0.4,0,0.7-0.3,0.7-0.7V72.2
			C64.1,71.8,63.8,71.5,63.4,71.5z"/>
		<path class="st0" d="M69.8,71.5c-0.4,0-0.7,0.3-0.7,0.7v13.1c0,0.4,0.3,0.7,0.7,0.7c0.4,0,0.7-0.3,0.7-0.7V72.2
			C70.6,71.8,70.2,71.5,69.8,71.5z"/>
		<path class="st0" d="M97.1,84.8c-0.1-0.4-0.5-0.6-0.9-0.5c-2.9,0.9-5.1,0.9-6.4-0.1c-1.4-1-1.4-2.7-1.4-2.7V59.1
			c0-0.4-0.3-0.7-0.7-0.7c-0.4,0-0.7,0.3-0.7,0.7v22.4c0,0.1,0,2.5,2,3.9c0.9,0.7,2.1,1,3.6,1c1.2,0,2.6-0.2,4.2-0.7
			C97,85.6,97.2,85.2,97.1,84.8z"/>
		<path class="st0" d="M89.9,72.3h4.9c0.4,0,0.7-0.3,0.7-0.7c0-0.4-0.3-0.7-0.7-0.7h-4.9c-0.4,0-0.7,0.3-0.7,0.7
			C89.2,72,89.5,72.3,89.9,72.3z"/>
		<circle class="st0" cx="63.5" cy="67" r="2"/>
		<circle class="st0" cx="67.4" cy="62.2" r="2.8"/>
		<path class="st0" d="M72.9,59.6c2,0,3.6-1.6,3.6-3.6c0-2-1.6-3.6-3.6-3.6c-2,0-3.6,1.6-3.6,3.6C69.3,58,70.9,59.6,72.9,59.6z"/>
	</g>
	<g>
		<polyline class="st12" points="54,103.3 27.6,103.3 20.2,89 24.3,86.8 24.3,57.2 		"/>
		<polyline class="st12" points="57.2,98 86.2,98 86.2,103.3 113.1,103.3 120.5,89 116.4,86.8 116.4,76.4 		"/>
		<polyline class="st12" points="86.3,42.8 86.3,37.5 113.3,37.5 120.6,51.8 116.5,54.1 116.5,71 		"/>
		<polyline class="st12" points="76.5,42.8 54.7,42.8 54.7,37.5 27.7,37.5 20.3,51.8 		"/>
	</g>
</g>
</svg>
