<?xml version="1.0" encoding="utf-8"?>
<!-- Generator: Adobe Illustrator 19.1.0, SVG Export Plug-In . SVG Version: 6.00 Build 0)  -->
<svg version="1.1" id="Layer_1" xmlns="http://www.w3.org/2000/svg" xmlns:xlink="http://www.w3.org/1999/xlink" x="0px" y="0px"
	 viewBox="0 0 140.8 140.8" style="enable-background:new 0 0 140.8 140.8;" xml:space="preserve">
<style type="text/css">
	.st0{fill:#A5D5C3;}
	.st1{fill:#D1DF66;}
	.st2{fill:#FFFFFF;}
	.st3{fill:none;stroke:#414042;stroke-width:9;stroke-linecap:round;stroke-linejoin:round;stroke-miterlimit:10;}
	.st4{fill:none;stroke:#FDFDFE;stroke-width:4.536;stroke-miterlimit:10;}
	.st5{fill:#FDFDFE;}
	.st6{fill:none;stroke:#FCFCFC;stroke-width:2.2536;stroke-linecap:round;stroke-miterlimit:10;}
	.st7{fill:none;stroke:#FFFFFF;stroke-width:2.2536;stroke-miterlimit:10;}
	.st8{fill:none;stroke:#FFFFFF;stroke-width:2.2536;stroke-linecap:round;stroke-miterlimit:10;}
	.st9{fill:#FCFCFC;}
	.st10{fill:none;stroke:#FFFFFF;stroke-width:2.232;stroke-miterlimit:10;}
	.st11{fill:none;stroke:#FFFFFF;stroke-width:2.232;stroke-linecap:round;stroke-linejoin:round;stroke-miterlimit:10;}
	.st12{fill:none;stroke:#A5D5C3;stroke-width:2.232;stroke-miterlimit:10;}
</style>
<g>
	<path class="st0" d="M66.1,58.4c0.1,0,0.1,0,0.2,0c10.1,0.1,12,8.8,12.1,9.1c0.1,0.5,0.5,0.8,1,0.8c0.1,0,0.1,0,0.2,0
		c0.5-0.1,0.9-0.6,0.8-1.2c0-0.1-0.6-2.7-2.6-5.3c-1.8-2.4-5.3-5.3-11.5-5.4c-0.1,0-0.2,0-0.3,0c-10.8,0-14.2,10.1-14.2,10.2
		c-0.2,0.5,0.1,1.1,0.6,1.2c0.5,0.2,1.1-0.1,1.2-0.6C53.8,66.9,56.7,58.4,66.1,58.4z"/>
	<path class="st0" d="M66.3,63.5c-0.1,0-0.1,0-0.2,0c-7.3,0-9.6,6.9-9.7,7c-0.2,0.5,0.1,1.1,0.6,1.2c0.5,0.2,1.1-0.1,1.2-0.6
		c0.1-0.2,1.9-5.6,7.8-5.6c0,0,0.1,0,0.1,0c6.4,0.1,7.6,5.5,7.6,5.7c0.1,0.5,0.5,0.8,1,0.8c0.1,0,0.1,0,0.2,0
		c0.5-0.1,0.9-0.6,0.8-1.2C75.8,70.7,74.3,63.6,66.3,63.5z"/>
	<path class="st0" d="M66.2,70.6c-2.9,0-4.4,2.2-4.8,3.4c-0.2,0.5,0.1,1.1,0.6,1.2c0.5,0.2,1.1-0.1,1.2-0.6c0,0,0.7-2.1,2.9-2.1
		c0,0,0,0,0.1,0c2.3,0,2.7,1.9,2.8,2.1c0.1,0.5,0.5,0.8,1,0.8c0.1,0,0.1,0,0.2,0c0.5-0.1,0.9-0.6,0.8-1.2
		C70.7,73,69.4,70.7,66.2,70.6z"/>
	<circle class="st0" cx="65.8" cy="99.9" r="3.4"/>
	<path class="st0" d="M70.1,31.5c0.6,0,1.1-0.5,1.1-1.1s-0.5-1.1-1.1-1.1h-10c-0.6,0-1.1,0.5-1.1,1.1s0.5,1.1,1.1,1.1H70.1z"/>
	<path class="st0" d="M100.7,68.7L100.7,68.7C96.6,65.3,96,55,96,54c0.2-2.3-0.2-4.1-1.4-5.2c-1.6-1.6-3.9-1.2-4-1.2l-0.2,0l0,0
		c0,0-0.7,0-2.3,1.7c-3.9,3.5-5.3,9.3-4.1,16.7c1,6.4,4,12.7,4.1,12.9v12.4H51.8v2.3H88v4.2l-5.4,8.1l-33,0.1l-5.4-8.2v-1.8v-2.4
		v-2.3v-2V36.8H88v5h2.3v-7.3v-4.9L83.8,20l-35.4,0.1l-6.5,9.7v0l2.3,0.7v0l5.4-8.1l33-0.1l5.4,8.2v4.2H46.2h-2.1h-2.3v26.9
		c-1.2-0.3-2.9-0.4-4.5,0.4c-1.9,0.9-3.1,2-3.7,4.8c0,0-0.1,0.8-0.1,1.1c0,0.3,0,3.1,2.2,5.3c0.4,0.4,0.8,0.7,1.2,1
		c-1.7,1.2-2.7,2.6-3,5.9c0,0.8-0.1,3.2,2.1,5.3c0.2,0.2,0.5,0.4,0.7,0.6c-0.2,0.1-0.4,0.3-0.6,0.5c-1.6,1.4-2.4,3.5-2.2,6.4
		c0,0.1,0.3,3.4,2.8,5.1c0.3,0.2,0.7,0.4,1.1,0.6c-0.4,0.4-0.8,0.9-1.1,1.4c-1.1,1.9-1.6,3.6-0.2,5.9c1.2,2,1.7,2.4,4.1,2.4
		c0.2,0,0.4,0,0.6,0c1.7-0.3,3.7-0.7,5.1-2.7l1.9,2.8l10.2,0l0.2,0.2c6.8,8.2,13.5,12.4,20.1,12.4c0.2,0,0.5,0,0.7,0
		c7.2-0.3,11.7-5.7,12.7-7c10.1-3.8,12.2-9.1,12.4-9.4C112.2,81.1,101.1,69.2,100.7,68.7z M35.8,67.9c-0.1-0.9,1.1-3.5,2.6-4
		c1.2-0.6,2.6-0.3,3.4-0.1V73c0,0-1.5,0.1-1.6,0c-1.1-0.3-2.1-0.7-2.8-1.4C36,70.2,35.9,68.8,35.8,67.9z M36.3,80.2
		c0.3-2.6,0.9-3.5,2.1-4.3c0.5-0.4,1.1-0.5,1.7-0.6c0.6,0,1,0,1.7,0.2v9.4c-0.5,0.2-1,0.2-1.8,0.1c-0.9-0.2-1.7-0.6-2.3-1.1
		C36.2,82.3,36.3,80.2,36.3,80.2z M36.3,92.7c-0.1-2.1,0.4-3.6,1.4-4.5c0.7-0.6,1.5-0.9,2.3-1c0.7-0.1,1.1-0.1,1.8,0.1v9.2
		c-0.1,0-0.3,0.1-0.4,0.1c-1.4,0.2-2.5,0.1-3.3-0.5C36.5,95,36.3,92.7,36.3,92.7z M41.1,105.9c-1.3,0.2-1.5-0.1-2.4-1
		c-0.9-1.5-0.6-2.7,0-3.9c0.7-1.3,2.1-2,3.2-2.3c0,0,0.1,0,0.1,0l0.1,0.2l2.5,5.4C44,105.4,42.3,105.8,41.1,105.9z M102.5,103.7
		c0,0-1.9,4.7-11.3,8.2l-0.3,0.1l-0.2,0.3c0,0.1-4.2,6-11.2,6.4c-5.7,0.3-11.7-3.2-17.9-10.4l22.3-0.1l6.5-9.7v-4.9
		c0,0,0.2-14.1-0.2-16.1c-0.4-2-10.1-20.9,1-27.8c0.4,0,1.3,0,1.9,0.6c0.8,0.8,0.9,2.3,0.7,3.4l0,0.1l0,0.1c0,0.5,0.5,12.1,5.4,16.2
		C99.7,71,109.4,82.3,102.5,103.7z"/>
</g>
</svg>
