<?xml version="1.0" encoding="utf-8"?>
<!-- Generator: Adobe Illustrator 19.1.0, SVG Export Plug-In . SVG Version: 6.00 Build 0)  -->
<svg version="1.1" id="Layer_1" xmlns="http://www.w3.org/2000/svg" xmlns:xlink="http://www.w3.org/1999/xlink" x="0px" y="0px"
	 viewBox="0 0 140.8 140.8" style="enable-background:new 0 0 140.8 140.8;" xml:space="preserve">
<style type="text/css">
	.st0{fill:#A5D5C3;}
	.st1{fill:#D1DF66;}
	.st2{fill:#FFFFFF;}
	.st3{fill:none;stroke:#414042;stroke-width:9;stroke-linecap:round;stroke-linejoin:round;stroke-miterlimit:10;}
	.st4{fill:none;stroke:#FDFDFE;stroke-width:4.536;stroke-miterlimit:10;}
	.st5{fill:#FDFDFE;}
	.st6{fill:none;stroke:#FCFCFC;stroke-width:2.2536;stroke-linecap:round;stroke-miterlimit:10;}
	.st7{fill:none;stroke:#FFFFFF;stroke-width:2.2536;stroke-miterlimit:10;}
	.st8{fill:none;stroke:#FFFFFF;stroke-width:2.2536;stroke-linecap:round;stroke-miterlimit:10;}
	.st9{fill:#FCFCFC;}
	.st10{fill:none;stroke:#FFFFFF;stroke-width:2.232;stroke-miterlimit:10;}
	.st11{fill:none;stroke:#FFFFFF;stroke-width:2.232;stroke-linecap:round;stroke-linejoin:round;stroke-miterlimit:10;}
	.st12{fill:none;stroke:#A5D5C3;stroke-width:2.232;stroke-miterlimit:10;}
</style>
<g>
	<g>
		<circle class="st0" cx="69.3" cy="69.4" r="4.5"/>
	</g>
	<g>
		<path class="st0" d="M40.2,97.3c-0.2-0.1-20.6-6.9-20.3-28.8c0.3-23.4,21-27.8,21.2-27.9l0.4,2.2C40.8,43,22.4,47,22.1,68.6
			c-0.3,20.2,18,26.4,18.8,26.6L40.2,97.3z"/>
	</g>
	<g>
		<path class="st0" d="M47.9,88c-0.1,0-13.8-4.6-13.6-19.3C34.5,52.9,48.4,50,48.6,49.9l0.4,2.2c-0.5,0.1-12.3,2.7-12.5,16.5
			c-0.2,13,12,17.1,12.1,17.1L47.9,88z"/>
	</g>
	<g>
		<path class="st0" d="M55.4,77.8c-2.2-0.7-6.5-3.5-6.4-9c0.1-5.9,4.4-8.3,6.7-8.8l0.4,2.2c-0.2,0-4.8,1.1-4.9,6.6
			c-0.1,5.2,4.8,6.8,4.8,6.9L55.4,77.8z"/>
	</g>
	<g>
		<path class="st0" d="M99.7,97.3l-0.4-2.2c0.8-0.2,19.1-4.1,19.4-25.7c0.3-20.2-18-26.4-18.8-26.6l0.7-2.1
			c0.2,0.1,20.6,6.9,20.3,28.8C120.6,92.8,99.9,97.3,99.7,97.3z"/>
	</g>
	<g>
		<path class="st0" d="M92.3,88l-0.4-2.2c0.5-0.1,12.3-2.7,12.5-16.5c0.2-13-12-17.1-12.1-17.1l0.7-2.1c0.1,0,13.8,4.6,13.6,19.3
			C106.3,85,92.4,88,92.3,88z"/>
	</g>
	<g>
		<path class="st0" d="M85.1,78l-0.4-2.2c0.2,0,4.8-1.1,4.9-6.6c0.1-5.2-4.8-6.8-4.8-6.9l0.7-2.1c2.2,0.7,6.5,3.5,6.4,9
			C91.8,75.1,87.4,77.5,85.1,78z"/>
	</g>
</g>
</svg>
