<?xml version="1.0" encoding="utf-8"?>
<!-- Generator: Adobe Illustrator 19.1.0, SVG Export Plug-In . SVG Version: 6.00 Build 0)  -->
<svg version="1.1" id="Layer_1" xmlns="http://www.w3.org/2000/svg" xmlns:xlink="http://www.w3.org/1999/xlink" x="0px" y="0px"
	 viewBox="0 0 140.8 140.8" style="enable-background:new 0 0 140.8 140.8;" xml:space="preserve">
<style type="text/css">
	.st0{fill:#A5D5C3;}
	.st1{fill:#D1DF66;}
	.st2{fill:#FFFFFF;}
	.st3{fill:none;stroke:#414042;stroke-width:9;stroke-linecap:round;stroke-linejoin:round;stroke-miterlimit:10;}
	.st4{fill:none;stroke:#FDFDFE;stroke-width:4.536;stroke-miterlimit:10;}
	.st5{fill:#FDFDFE;}
	.st6{fill:none;stroke:#FCFCFC;stroke-width:2.2536;stroke-linecap:round;stroke-miterlimit:10;}
	.st7{fill:none;stroke:#FFFFFF;stroke-width:2.2536;stroke-miterlimit:10;}
	.st8{fill:none;stroke:#FFFFFF;stroke-width:2.2536;stroke-linecap:round;stroke-miterlimit:10;}
	.st9{fill:#FCFCFC;}
	.st10{fill:none;stroke:#FFFFFF;stroke-width:2.232;stroke-miterlimit:10;}
	.st11{fill:none;stroke:#FFFFFF;stroke-width:2.232;stroke-linecap:round;stroke-linejoin:round;stroke-miterlimit:10;}
	.st12{fill:none;stroke:#A5D5C3;stroke-width:2.232;stroke-miterlimit:10;}
	.st13{fill:#E5E5E5;}
	.st14{fill:none;stroke:#454545;stroke-miterlimit:10;}
	.st15{fill:none;stroke:#FFFFFF;stroke-width:4.536;stroke-miterlimit:10;}
</style>
<g>
	<path class="st13" d="M58.2,118.3c-6.3,0-20.8-0.5-20.8-4.7l0-0.1c0,0,0-0.1,0-0.1V65c0-1,0.6-1.9,1.8-2.5
		c3.1-2.2,11.8-3.1,19.1-3.1c1.6,0,3.2,0,4.8,0.1V45.3c-0.1-0.8-0.1-3.2,1.7-5.2c1.6-1.8,3.9-2.8,7-2.8c1,0,8.7,0,14.2,0v-5.1
		c0-1.1,0.3-2.2,0.9-3c2-3.4,7.6-5,12.3-5s10.2,1.5,12.3,5c0.6,0.8,0.9,1.8,0.9,3v73c0,0.1,0,0.2,0,0.3c0,0,0,0,0,0.1
		c0,5.1-8.6,6.5-13.2,6.5s-13.2-1.4-13.2-6.5l0-0.2c0,0,0-0.1,0-0.2V45.4c-5.5,0-13.2,0-14.2,0c-0.2,0-0.4,0-0.6,0L71,45.5v15
		c2.9,0.5,5,1.2,6.2,2.1C78.4,63.1,79,64,79,65v48.3c0,0,0,0.1,0,0.1l0,0.1c0,1.9-2.3,3.1-7.8,3.9C67.6,118,62.7,118.3,58.2,118.3z
		 M39.6,113.6c0.9,1.2,8.6,2.5,18.6,2.5c10,0,17.7-1.3,18.6-2.5l0,0l0-0.1l0-48.3c0-0.1-0.1-0.3-0.6-0.5L76,64.4
		c-0.6-0.4-2.2-1.2-6.3-1.9l-0.9-0.2l0-17.6c0-0.3,0.1-0.6,0.3-0.9c0.6-0.6,1.7-0.7,2.5-0.7c1.1,0,9.8,0,15.4,0l1.1,0v62.4
		c0,2.6,5.7,4.2,11,4.2c5.3,0,11-1.6,11-4.2l0-0.2l0-0.2v-73c0-0.6-0.2-1.2-0.5-1.6l-0.1-0.2c-1.3-2.3-5.7-3.9-10.4-3.9
		c-4.7,0-9.1,1.7-10.4,3.9l-0.1,0.2c-0.3,0.4-0.5,1-0.5,1.6v7.3l-1.1,0c-5.5,0-14.2,0-15.3,0c-2.4,0-4.2,0.7-5.3,2
		c-1.2,1.4-1.2,3-1.2,3.7l0,16.7L64,61.8c-1.9-0.1-3.9-0.2-5.8-0.2c-8.1,0-15.6,1.2-17.8,2.8l-0.2,0.1c-0.5,0.2-0.6,0.5-0.6,0.5
		L39.6,113.6z"/>
</g>
<g>
	<path class="st13" d="M57.1,84c0,0-6,7.9,0,7.9C62.8,91.9,57.1,84,57.1,84z"/>
	<path class="st13" d="M57.1,92.4C57.1,92.4,57.1,92.4,57.1,92.4c-1.5,0-2.5-0.5-3-1.4c-1.2-2.4,2.1-6.8,2.5-7.3l0.4-0.5l0.4,0.5
		c0.4,0.5,3.6,5.1,2.4,7.4C59.4,91.9,58.5,92.4,57.1,92.4z M57.1,84.8c-1,1.5-2.7,4.4-2,5.7c0.3,0.5,0.9,0.8,2,0.8
		c1,0,1.6-0.2,1.9-0.7C59.6,89.4,58.3,86.7,57.1,84.8z"/>
</g>
</svg>
