<?xml version="1.0" encoding="utf-8"?>
<!-- Generator: Adobe Illustrator 19.1.0, SVG Export Plug-In . SVG Version: 6.00 Build 0)  -->
<svg version="1.1" id="Layer_1" xmlns="http://www.w3.org/2000/svg" xmlns:xlink="http://www.w3.org/1999/xlink" x="0px" y="0px"
	 viewBox="0 0 140.8 140.8" style="enable-background:new 0 0 140.8 140.8;" xml:space="preserve">
<style type="text/css">
	.st0{fill:#A5D5C3;}
	.st1{fill:#D1DF66;}
	.st2{fill:#FFFFFF;}
	.st3{fill:none;stroke:#414042;stroke-width:9;stroke-linecap:round;stroke-linejoin:round;stroke-miterlimit:10;}
	.st4{fill:none;stroke:#FDFDFE;stroke-width:4.536;stroke-miterlimit:10;}
	.st5{fill:#FDFDFE;}
	.st6{fill:none;stroke:#FCFCFC;stroke-width:2.2536;stroke-linecap:round;stroke-miterlimit:10;}
	.st7{fill:none;stroke:#FFFFFF;stroke-width:2.2536;stroke-miterlimit:10;}
	.st8{fill:none;stroke:#FFFFFF;stroke-width:2.2536;stroke-linecap:round;stroke-miterlimit:10;}
	.st9{fill:#FCFCFC;}
	.st10{fill:none;stroke:#FFFFFF;stroke-width:2.232;stroke-miterlimit:10;}
	.st11{fill:none;stroke:#FFFFFF;stroke-width:2.232;stroke-linecap:round;stroke-linejoin:round;stroke-miterlimit:10;}
	.st12{fill:none;stroke:#A5D5C3;stroke-width:2.232;stroke-miterlimit:10;}
	.st13{fill:#E5E5E5;}
	.st14{fill:none;stroke:#454545;stroke-miterlimit:10;}
	.st15{fill:none;stroke:#FFFFFF;stroke-width:4.536;stroke-miterlimit:10;}
</style>
<g>
	<g>
		<path class="st13" d="M72.5,122.8c-2.6,0-25-0.2-25-7.6l0-0.2c0-0.1,0-0.2,0-0.2V26.3c0-1.4,0.7-2.7,1.8-3.7
			c3.8-4,14.3-5.7,23.2-5.7s19.4,1.8,23.2,5.7c1.2,0.9,1.8,2.2,1.8,3.7v88.5c0,0.1,0,0.2,0,0.2c0,0.1,0,0.1,0,0.2
			C97.5,122.6,75.1,122.8,72.5,122.8z M72.5,19.2c-9.8,0-18.9,2.1-21.6,5.1l-0.2,0.1c-0.7,0.5-1,1.2-1,1.9v88.5c0,0,0,0.1,0,0.1
			l0,0.1l0,0.2c0,2.9,10.4,5.3,22.8,5.3s22.8-2.5,22.8-5.4l0-0.2l0-0.1c0-0.1,0-0.1,0-0.2V26.3c0-0.7-0.4-1.4-1-1.9l-0.2-0.1
			C91.4,21.3,82.3,19.2,72.5,19.2z"/>
	</g>
	<g>
		<path class="st13" d="M72.5,77.3L72.5,77.3c0.2,0,0.4,0,0.5,0c2.5-0.3,4.3-2.6,4-5c-0.1-1.2-0.8-2.3-1.8-3.1
			c-0.1-0.1-0.2-0.3-0.4-0.4c-1.5-1.4-1.2-4.5-1.2-4.5c0-0.2-0.1-0.3-0.2-0.4c-0.1-0.1-0.3,0-0.4,0.1c-0.1,0.1-1.6,1.6-2.9,4.2
			c-0.2-0.4-0.3-0.7-0.3-0.7c0-0.1-0.2-0.3-0.3-0.3c-0.2,0-0.3,0.1-0.4,0.2c-0.1,0.1-1.5,3-1.2,5.5c0,0.1,0,0.3,0,0.4
			C68.2,75.6,70.2,77.3,72.5,77.3z M72.3,69.9c0.1-0.1,0.1-0.1,0.2,0c0.1,0,0.1,0.1,0.1,0.2c0,0-0.2,1.2,0.7,1.9
			c0.7,0.6,1.4,1.2,1.4,2.2c0,1.3-1,2.3-2.3,2.3c-1.3,0-2.3-1-2.3-2.3C70.2,72.3,72.2,70,72.3,69.9z"/>
	</g>
</g>
</svg>
