<?xml version="1.0" encoding="utf-8"?>
<!-- Generator: Adobe Illustrator 19.1.0, SVG Export Plug-In . SVG Version: 6.00 Build 0)  -->
<svg version="1.1" id="Layer_1" xmlns="http://www.w3.org/2000/svg" xmlns:xlink="http://www.w3.org/1999/xlink" x="0px" y="0px"
	 viewBox="0 0 140.8 140.8" style="enable-background:new 0 0 140.8 140.8;" xml:space="preserve">
<style type="text/css">
	.st0{fill:#A5D5C3;}
	.st1{fill:#D1DF66;}
	.st2{fill:#FFFFFF;}
	.st3{fill:none;stroke:#414042;stroke-width:9;stroke-linecap:round;stroke-linejoin:round;stroke-miterlimit:10;}
	.st4{fill:none;stroke:#FDFDFE;stroke-width:4.536;stroke-miterlimit:10;}
	.st5{fill:#FDFDFE;}
	.st6{fill:none;stroke:#FCFCFC;stroke-width:2.2536;stroke-linecap:round;stroke-miterlimit:10;}
	.st7{fill:none;stroke:#FFFFFF;stroke-width:2.2536;stroke-miterlimit:10;}
	.st8{fill:none;stroke:#FFFFFF;stroke-width:2.2536;stroke-linecap:round;stroke-miterlimit:10;}
	.st9{fill:#FCFCFC;}
	.st10{fill:none;stroke:#FFFFFF;stroke-width:2.232;stroke-miterlimit:10;}
	.st11{fill:none;stroke:#FFFFFF;stroke-width:2.232;stroke-linecap:round;stroke-linejoin:round;stroke-miterlimit:10;}
	.st12{fill:none;stroke:#A5D5C3;stroke-width:2.232;stroke-miterlimit:10;}
	.st13{fill:#E5E5E5;}
	.st14{fill:none;stroke:#454545;stroke-miterlimit:10;}
	.st15{fill:none;stroke:#FFFFFF;stroke-width:4.536;stroke-miterlimit:10;}
</style>
<g>
	<path class="st0" d="M114,121.6H28.3c-4.8,0-8.7-3.9-8.7-8.7V27.2c0-4.8,3.9-8.7,8.7-8.7H114c3.9,0,7.4,2.6,8.4,6.4l0,0.3V115
		l0,0.1C121.4,119,117.9,121.6,114,121.6z M28.3,20.7c-3.6,0-6.5,2.9-6.5,6.5v85.7c0,3.6,2.9,6.5,6.5,6.5H114c2.9,0,5.4-1.9,6.2-4.7
		V25.3c-0.8-2.7-3.4-4.7-6.2-4.7H28.3z"/>
</g>
<path class="st0" d="M101.1,90.6c-1.3-2.1-21.2-16.5-25.2-19.3l-0.8-0.6c0-0.2,0-0.4,0-0.7l0.9-0.6c7.6-5.2,25.2-17.8,24-22.3
	c-0.9-3.2-3.3-6.2-5.7-7.1c-1.4-0.5-2.4-0.2-3,0.2c-2.1,1.3-16.5,21.2-19.3,25.2l-0.6,0.8c-0.2,0-0.4,0-0.7,0L70,65.2
	c-5.2-7.6-17.8-25.2-22.3-24c-3.2,0.9-6.2,3.3-7.1,5.7c-0.5,1.4-0.2,2.4,0.2,3C42.1,52,62,66.4,65.9,69.2l0.9,0.6c0,0.2,0,0.4,0,0.6
	l-0.9,0.6c-7.6,5.2-25.3,17.8-24,22.3c0.9,3.2,3.3,6.2,5.7,7.1c0.5,0.2,1,0.3,1.4,0.3c0.7,0,1.2-0.2,1.6-0.4
	c2.1-1.3,16.5-21.2,19.3-25.2l0.7-0.9c0.1,0,0.3,0,0.4,0c0,0,0.1,0,0.1,0l0.7,1c5,7.4,17,24,21.8,24c0.2,0,0.3,0,0.5-0.1
	c3.2-0.9,6.2-3.3,7.1-5.7C101.8,92.1,101.4,91.2,101.1,90.6z M69.7,71.5c-0.7-0.7-0.7-1.9,0-2.7c0.4-0.4,0.9-0.6,1.3-0.6
	c0.2,0,0.4,0,0.7,0.1c0.2,0.1,0.4,0.2,0.6,0.4c0.7,0.7,0.7,1.9,0,2.7c-0.5,0.5-1.3,0.7-2,0.4C70,71.8,69.8,71.7,69.7,71.5z M92.5,42
	c0.3-0.2,0.7-0.1,1,0c1.5,0.6,3.6,2.8,4.4,5.6c0.3,1.9-9.7,10.6-22,19.2c-0.4-0.5-0.9-0.9-1.3-1.2C81,56.6,91.1,43,92.5,42z
	 M42.7,48.7c-0.2-0.3-0.1-0.7,0-1c0.6-1.5,2.8-3.6,5.6-4.4c0,0,0.1,0,0.1,0c2.1,0,10.7,9.9,19.1,22c-0.5,0.4-0.9,0.9-1.2,1.3
	C57.3,60.2,43.6,50.1,42.7,48.7z M49.4,98.5c-0.3,0.2-0.7,0.1-1,0c-1.5-0.6-3.6-2.8-4.4-5.6c-0.3-1.9,9.7-10.6,22-19.2
	c0.4,0.5,0.9,0.9,1.3,1.2C60.9,83.9,50.8,97.5,49.4,98.5z M99.1,92.8c-0.6,1.5-2.8,3.6-5.6,4.4c-1.9,0.3-10.6-9.7-19.2-22
	c0.5-0.4,0.9-0.9,1.2-1.3c9,6.5,22.6,16.6,23.6,18C99.4,92,99.3,92.5,99.1,92.8z"/>
</svg>
