<?xml version="1.0" encoding="utf-8"?>
<!-- Generator: Adobe Illustrator 19.1.0, SVG Export Plug-In . SVG Version: 6.00 Build 0)  -->
<svg version="1.1" id="Layer_1" xmlns="http://www.w3.org/2000/svg" xmlns:xlink="http://www.w3.org/1999/xlink" x="0px" y="0px"
	 viewBox="0 0 140.8 140.8" style="enable-background:new 0 0 140.8 140.8;" xml:space="preserve">
<style type="text/css">
	.st0{fill:#A5D5C3;}
	.st1{fill:#D1DF66;}
	.st2{fill:#FFFFFF;}
	.st3{fill:none;stroke:#414042;stroke-width:9;stroke-linecap:round;stroke-linejoin:round;stroke-miterlimit:10;}
	.st4{fill:none;stroke:#FDFDFE;stroke-width:4.536;stroke-miterlimit:10;}
	.st5{fill:#FDFDFE;}
	.st6{fill:none;stroke:#FCFCFC;stroke-width:2.2536;stroke-linecap:round;stroke-miterlimit:10;}
	.st7{fill:none;stroke:#FFFFFF;stroke-width:2.2536;stroke-miterlimit:10;}
	.st8{fill:none;stroke:#FFFFFF;stroke-width:2.2536;stroke-linecap:round;stroke-miterlimit:10;}
	.st9{fill:#FCFCFC;}
	.st10{fill:none;stroke:#FFFFFF;stroke-width:2.232;stroke-miterlimit:10;}
	.st11{fill:none;stroke:#FFFFFF;stroke-width:2.232;stroke-linecap:round;stroke-linejoin:round;stroke-miterlimit:10;}
	.st12{fill:none;stroke:#A5D5C3;stroke-width:2.232;stroke-miterlimit:10;}
	.st13{fill:#E5E5E5;}
	.st14{fill:none;stroke:#454545;stroke-miterlimit:10;}
	.st15{fill:none;stroke:#FFFFFF;stroke-width:4.536;stroke-miterlimit:10;}
</style>
<g>
	<path class="st0" d="M73.1,125H34.5c-2.5,0-4.6-2.4-4.6-5.4V71.1c0-2.7,1.6-4.9,3.7-5.3V52l0.5-1.3l6.8-8.3V20.2l2.1-2.1h21.1
		l2.1,2.1v22.1l0.3,0.1l6.9,8.4L74,52v1.3h1.7c0.2,0,0.3,0,0.4-0.1V20.6c0-1.4,1.2-2.6,2.6-2.6h5.8c1.4,0,2.6,1.2,2.6,2.6v36
		c0,3.6-3.5,6.6-7.8,6.6H74v2.6c2.1,0.5,3.7,2.7,3.7,5.3v28.8h2.9l1.7,1.7l9.6,0c0,0,0,0,0,0c1.3,0,2.8-0.3,3.2-0.7
		c0.2-0.1,0.6-0.8,0.6-2.5l0-77.8c0-0.7,0.3-1.3,0.8-1.8c0.5-0.5,1.1-0.8,1.8-0.8h18.1c1.4,0,2.6,1.2,2.6,2.6v77.8
		c0,9.3-4.6,14.8-8.5,17.7c-6.5,4.9-14.3,5.6-18.5,5.6c-0.3,0-5.6,0-9.8,0l-1.5,1.5h-4.1C75.6,124.3,74.4,125,73.1,125z M34.5,67.9
		c-1.3,0-2.3,1.5-2.3,3.2v48.4c0,1.7,1.1,3.2,2.3,3.2h38.6c0.7,0,1.4-0.5,1.9-1.4l0.7-1.4l1.1,1.1h2.8l0.8-0.8v-0.7l1.1-0.1
		c4.3,0,10,0,10.3,0c3.8,0,11.2-0.7,17.1-5.2c3.5-2.6,7.6-7.5,7.6-15.9V20.6c0-0.2-0.2-0.3-0.3-0.3H98.2c-0.1,0-0.2,0-0.2,0.1
		s-0.1,0.2-0.1,0.2l0,77.8c0,1.4-0.3,3.3-1.4,4.3c-1.1,0.8-3.1,1.1-4.5,1.1l-11.4,0v-0.9l-0.8-0.8h-4.2v-31c0-1.7-1.1-3.2-2.3-3.2
		h-1.4v-7h7.5c3,0,5.5-1.9,5.5-4.3v-36c0-0.2-0.2-0.3-0.3-0.3h-5.8c-0.2,0-0.3,0.2-0.3,0.3v33.1c0,1.1-1.2,1.9-2.6,1.9h-4v-3.2
		l-0.2-0.6l-6.3-7.7l-1.1-0.5V21.1l-0.8-0.8H44l-0.8,0.8v22.7l-0.8,0.4l-6.3,7.7l-0.2,0.6v15.5H34.5z"/>
</g>
<g>
	<path class="st0" d="M69.2,93.5H39c-0.6,0-1.1-0.5-1.1-1.1s0.5-1.1,1.1-1.1h30.2c0.6,0,1.1,0.5,1.1,1.1S69.8,93.5,69.2,93.5z"/>
</g>
<g>
	<path class="st0" d="M69.2,97.9H39c-0.6,0-1.1-0.5-1.1-1.1s0.5-1.1,1.1-1.1h30.2c0.6,0,1.1,0.5,1.1,1.1S69.8,97.9,69.2,97.9z"/>
</g>
<g>
	<path class="st0" d="M69.2,102.3H39c-0.6,0-1.1-0.5-1.1-1.1s0.5-1.1,1.1-1.1h30.2c0.6,0,1.1,0.5,1.1,1.1S69.8,102.3,69.2,102.3z"/>
</g>
<g>
	<path class="st0" d="M69.2,106.7H39c-0.6,0-1.1-0.5-1.1-1.1s0.5-1.1,1.1-1.1h30.2c0.6,0,1.1,0.5,1.1,1.1S69.8,106.7,69.2,106.7z"/>
</g>
<g>
	<path class="st0" d="M69.2,111.1H39c-0.6,0-1.1-0.5-1.1-1.1s0.5-1.1,1.1-1.1h30.2c0.6,0,1.1,0.5,1.1,1.1S69.8,111.1,69.2,111.1z"/>
</g>
<g>
	<path class="st0" d="M69.2,115.5H39c-0.6,0-1.1-0.5-1.1-1.1s0.5-1.1,1.1-1.1h30.2c0.6,0,1.1,0.5,1.1,1.1S69.8,115.5,69.2,115.5z"/>
</g>
</svg>
